<svg xmlns="http://www.w3.org/2000/svg" height="800" width="1200" xml:space="preserve" y="0" x="0" id="Layer_1" version="1.1" viewBox="-45.75 -9.3 396.5 55.8"><style id="style15696" type="text/css">.st0{fill:#c00}</style><g transform="translate(0 -.1)" id="g15706"><path id="path15698" d="M66.1.1h1.5c3.3.1 6.7.8 9.6 2.6 2.4 1.5 4.2 3.7 5.2 6.3.7 1.7 1.1 3.6 1.2 5.4H72.8c-.1-1.5-.6-3.1-1.8-4.1-1.2-1.1-2.9-1.4-4.5-1.3-1.4 0-2.8.5-3.8 1.5-1.2 1.2-1.8 2.8-2.1 4.4-.4 1.9-.4 3.9-.2 5.8s.6 3.9 1.8 5.4c.9 1.2 2.2 1.9 3.7 2.1 1.5.2 3.1.1 4.5-.6 1.1-.6 1.9-1.6 2.3-2.7.3-.7.4-1.5.5-2.3h10.7c-.2 3.1-1.1 6.2-2.9 8.7-1.7 2.3-4.1 3.9-6.8 4.9-2 .7-4.2 1-6.3 1.1h-1.7c-2.9-.1-5.8-.7-8.4-2-2.6-1.3-4.7-3.3-6.2-5.8-1.8-3-2.6-6.6-2.7-10-.2-3.8.4-7.5 2.1-10.7 1.3-2.6 3.3-4.8 5.8-6.2C59.6.9 62.8.1 66.1.1z" class="st0"/><path id="path15700" d="M129 .1h1.6c3.2.1 6.5.7 9.2 2.5 1.4.9 2.6 2.1 3.4 3.5.9 1.6 1.4 3.3 1.6 5.1h-10.7c-.1-.8-.5-1.5-1-2-.7-.7-1.8-.9-2.8-1-.9-.1-1.9 0-2.8.2-.6.2-1.2.6-1.4 1.3-.2.6-.2 1.4.2 1.9.3.5.9.8 1.5 1 1 .4 2 .6 3 .9 2.1.6 4.2 1 6.3 1.6 1.4.4 2.7.9 3.9 1.6 1.3.8 2.5 1.9 3.4 3.2.9 1.3 1.3 2.9 1.4 4.5.1 1.9-.2 3.9-1 5.7-.6 1.4-1.6 2.7-2.8 3.7-2.3 1.8-5.1 2.7-8 3.1-1.1.1-2.1.2-3.2.2h-1.6c-2.6-.1-5.2-.5-7.6-1.6-2.3-1-4.4-2.8-5.6-5-.9-1.6-1.4-3.5-1.6-5.3h11c.2.8.5 1.7 1.1 2.3.5.5 1.1.9 1.8 1 .9.2 1.9.3 2.8.2.9-.1 1.9-.2 2.7-.7.5-.3.9-.9 1-1.5.1-.6 0-1.3-.5-1.8-.4-.5-1.1-.7-1.7-.9-1.1-.3-2.1-.6-3.2-.9-2-.5-3.9-1-5.9-1.7-1.4-.5-2.8-.9-4.1-1.7-1.4-.9-2.6-2.1-3.4-3.6-.8-1.6-1.1-3.5-1.1-5.3.1-1.7.5-3.3 1.3-4.8.8-1.4 2-2.6 3.4-3.5C122.4.7 125.7.2 129 .1z" class="st0"/><path id="path15702" d="M8.9 1.6C9.8.7 11.1.1 12.5.1s2.8.5 3.8 1.5l6.1 6.1 6.1-6.1C29.4.7 30.8.1 32.1.1c1.4 0 2.7.5 3.7 1.5l7.5 7.5c1 1 1.6 2.5 1.5 3.9-.1 1.3-.6 2.5-1.5 3.4-7 6.9-13.9 13.9-20.9 20.8-7-6.9-13.9-13.9-20.9-20.8-.9-.9-1.4-2.1-1.5-3.3v-.8C.1 11.1.6 9.9 1.5 9 4 6.6 6.4 4.1 8.9 1.6z" class="st0"/><path id="path15704" d="M81.3 1h11.5c2 7.6 3.9 15.1 5.9 22.7 2.1-7.6 4.2-15.1 6.3-22.7h11.1c-3.9 11.7-7.9 23.4-11.9 35.1H92.9C89.2 24.5 85.3 12.8 81.3 1z" class="st0"/></g><g transform="translate(0 -.1)" id="g15732"><path id="path15708" d="M149 4.3V1h11.2v3.3h-3.5v11.4h17.7V4.3h-3.5V1h11.2v3.3h-3.5v28.6h3.5v3.3h-11.2v-3.3h3.5v-14h-17.7v14h3.5v3.3H149v-3.3h3.5V4.3H149z"/><path id="path15710" d="M240.9 1h7.3v29.3c.1.7.2 1.6.6 2.2.4.5 1 .7 1.6.7.7 0 1.3 0 2-.2v3.2c-1.2.4-2.5.4-3.7.2-1-.2-2.1-.6-2.8-1.3-.8-.7-1.2-1.8-1.4-2.8-.3-1.3-.2-2.7-.2-4V4.2H241c-.1-1-.1-2.1-.1-3.2z"/><path id="path15712" d="M267.1 1h7.2v13.6c1.1-1.5 2.8-2.5 4.6-3 1.8-.5 3.7-.5 5.6-.1 1.9.4 3.6 1.4 4.9 2.8 1.6 1.7 2.4 3.9 2.7 6.2.1 1.1.1 2.2.1 3.2V33h3.3v3.2h-10.6V33h3.3V21.8c0-1.9-.5-3.8-1.7-5.3-1.1-1.2-2.7-1.9-4.3-2-1.7-.1-3.5.1-5 1-1.1.7-1.9 1.8-2.4 3-.4 1.1-.5 2.2-.5 3.4v11h3.3v3.2h-10.5v-3.2h3.3V4.1h-3.3V1z"/><path id="path15714" d="M256 5.7h4v6.2h4.9v3.2H260V30c0 .8.1 1.6.5 2.3.4.5 1 .8 1.6.8.9.1 1.9 0 2.8-.1v3.2c-1.3.4-2.6.4-3.9.2-1.3-.2-2.6-.6-3.5-1.6-1.3-1.3-1.5-3.3-1.5-5.1V15h-3.8v-3.2h3.8V5.7z"/><g id="g15718"><path id="path15716" d="M192.6 11.7c2.2-.6 4.6-.6 6.8-.2 2.6.5 5 1.9 6.6 3.9 1.2 1.5 1.9 3.2 2.3 5 .4 1.6.3 3.3.3 4.9h-20.9c.1 2 .8 4 2.1 5.5 1.1 1.3 2.7 2.2 4.4 2.5 1.8.4 3.7.3 5.4-.2 1.9-.5 3.6-1.8 4.5-3.5h4c-1.1 2.5-3 4.6-5.5 5.8-1.8.9-3.8 1.3-5.8 1.4-3.1.1-6.2-.8-8.6-2.7-2.3-1.8-3.8-4.6-4.3-7.5-.6-3.5 0-7.3 2-10.2 1.4-2.3 3.9-4 6.7-4.7zm1.7 3c-1.7.3-3.4 1.1-4.6 2.4-1.3 1.4-2 3.3-2.2 5.1h17c-.2-1.8-.8-3.6-2-5-.8-1-2-1.8-3.2-2.3-1.5-.5-3.3-.5-5-.2z"/></g><g id="g15722"><path id="path15720" d="M217.9 12.6c2.6-1.4 5.7-1.7 8.6-1 2.3.6 4.4 2 5.9 3.9v-3.6h7.2v3.2h-3.3V33h3.3v3.2h-7.2v-3.6c-1.5 2-3.7 3.4-6.2 4-3.3.8-7 .1-9.7-1.9-2.4-1.8-4.1-4.5-4.7-7.4-.7-3.1-.4-6.4 1-9.2 1-2.4 2.8-4.3 5.1-5.5zm5.1 2c-2.3.2-4.5 1.5-5.8 3.5-1.7 2.5-2.1 5.7-1.5 8.6.5 2.4 2 4.7 4.3 5.9 2.7 1.4 6.2 1.3 8.6-.5 1.3-.9 2.2-2.1 2.9-3.6 1-2.4 1.2-5.2.5-7.7-.6-2.3-2.2-4.5-4.4-5.6-1.4-.5-3-.8-4.6-.6z"/></g><g id="g15726"><path id="path15724" d="M299.1 30c1.3-1.2 3.6-1.1 4.8.2.6.6.9 1.4 1.1 2.2v.8c-.1.8-.4 1.6-1 2.2-1 1.1-2.6 1.4-4 .9-1-.4-1.8-1.2-2-2.2-.4-1.6 0-3.2 1.1-4.1zm1.8-.2c-.5.1-.9.3-1.3.7-1.2 1.1-1.2 3.2-.1 4.4.9 1 2.7 1.1 3.7.2 1.4-1.2 1.4-3.6 0-4.7-.7-.5-1.6-.7-2.3-.6z"/></g><g id="g15730"><path id="path15728" d="M300.1 30.8h1.9c.4 0 .9.2 1 .7.1.4.1.8-.1 1.2-.2.3-.5.4-.8.4.4.6.8 1.2 1.1 1.7h-.7c-.4-.6-.7-1.1-1-1.7h-.6v1.7h-.7c-.1-1.3-.1-2.6-.1-4zm.6.6v1.2c.4 0 .9 0 1.3-.1.5-.1.5-.9 0-1-.4-.2-.8-.1-1.3-.1z"/></g></g></svg>